<svg width="15" height="18" viewBox="0 0 15 18" fill="none" xmlns="http://www.w3.org/2000/svg">
<path d="M9.68715 1.5H5.37047C5.23586 1.5 5.16855 1.5 5.10913 1.5205C5.05658 1.53862 5.00872 1.5682 4.96901 1.60709C4.92411 1.65107 4.89401 1.71127 4.83381 1.83167L1.68381 8.13167C1.54005 8.41919 1.46817 8.56295 1.48543 8.67981C1.50051 8.78185 1.55695 8.87318 1.64148 8.9323C1.73828 9 1.89901 9 2.22046 9H6.87465L4.62464 16.5L13.7695 7.01648C14.078 6.69653 14.2323 6.53655 14.2413 6.39966C14.2491 6.28084 14.2 6.16536 14.1091 6.08852C14.0043 6 13.782 6 13.3376 6H7.99965L9.68715 1.5Z" stroke="#161616" stroke-opacity="0.5" stroke-width="1.5" stroke-linecap="round" stroke-linejoin="round"/>
</svg>
