<svg xmlns="http://www.w3.org/2000/svg" style="display:none;">
  <symbol id="delete" viewBox="0 0 16 16">
    <path d="M6 2H10" stroke="currentColor" stroke-width="1.3" stroke-linecap="round" stroke-linejoin="round" fill="none"/>
    <path d="M2 4H14" stroke="currentColor" stroke-width="1.3" stroke-linecap="round" stroke-linejoin="round" fill="none"/>
    <path d="M3.3335 4L3.73409 10.0089C3.80846 11.1245 3.84565 11.6823 4.02795 12.1304C4.35894 12.9441 5.02988 13.5718 5.86373 13.8479C6.32301 14 6.88206 14 8.00016 14V14C9.11826 14 9.67731 14 10.1366 13.8479C10.9704 13.5718 11.6414 12.9441 11.9724 12.1304C12.1547 11.6823 12.1919 11.1245 12.2662 10.0089L12.6668 4" stroke="currentColor" stroke-width="1.3" stroke-linecap="round" stroke-linejoin="round" fill="none"/>
  </symbol>

  <symbol id="edit" viewBox="0 0 15 15">
    <path d="M0.666504 14.3334L4.36602 12.9105C4.60264 12.8195 4.72096 12.774 4.83165 12.7146C4.92997 12.6618 5.0237 12.6009 5.11186 12.5324C5.21112 12.4554 5.30075 12.3658 5.48002 12.1865L12.9999 4.66671C13.7362 3.93033 13.7362 2.73642 12.9999 2.00004C12.2635 1.26366 11.0696 1.26366 10.3332 2.00004L2.81336 9.51985C2.63409 9.69912 2.54445 9.78876 2.46743 9.88801C2.39902 9.97617 2.33811 10.0699 2.28533 10.1682C2.22591 10.2789 2.1804 10.3972 2.08939 10.6339L0.666504 14.3334ZM0.666504 14.3334L2.03858 10.766C2.13677 10.5107 2.18586 10.3831 2.27006 10.3246C2.34365 10.2735 2.43471 10.2542 2.5227 10.271C2.62339 10.2902 2.72009 10.3869 2.91349 10.5803L4.41955 12.0864C4.61295 12.2798 4.70965 12.3765 4.72888 12.4772C4.74568 12.5652 4.72636 12.6562 4.67527 12.7298C4.6168 12.814 4.48916 12.8631 4.23388 12.9613L0.666504 14.3334Z" stroke="currentColor" stroke-width="1.3" stroke-linecap="round" stroke-linejoin="round" fill="none"/>
  </symbol>

  <symbol id="help" viewBox="0 0 20 20">
    <circle cx="10" cy="10" r="8.333" stroke="currentColor" stroke-width="1.8" fill="none"/>
    <path d="M7.5752 7.49999C7.77112 6.94304 8.15782 6.47341 8.66682 6.17426C9.17583 5.87512 9.77428 5.76577 10.3562 5.86558C10.9381 5.96539 11.4659 6.26792 11.8461 6.71959C12.2263 7.17126 12.4344 7.74292 12.4335 8.33332C12.4335 9.99999 9.93353 10.8333 9.93353 10.8333" stroke="currentColor" stroke-width="1.8" stroke-linecap="round" stroke-linejoin="round" fill="none"/>
    <circle cx="10" cy="14.167" r="0.75" fill="currentColor"/>
  </symbol>

  <symbol id="logo" viewBox="0 0 32 32">
    <rect width="32" height="32" rx="8" fill="currentColor"/>
    <path d="M13.3314 23.0269C13.5759 21.7553 13.7841 20.4168 14.0783 19.0782C14.2232 18.3777 14.0466 18.0788 13.2635 18.1324C12.4804 18.1859 11.6068 18.1591 10.7739 18.1324C9.94105 18.1056 9.79167 17.6862 10.2715 17.0883C12.6343 14.1703 15.0243 11.2881 17.4053 8.41472C17.6724 8.08902 17.9802 7.85701 18.4193 8.1024C18.8583 8.3478 18.7678 8.6512 18.6954 9.01706C18.4328 10.3556 18.2156 11.6941 17.9259 13.0058C17.7765 13.684 17.9711 13.9249 18.6773 13.8982C19.386 13.8625 20.096 13.8625 20.8047 13.8982C21.2076 13.8982 21.7372 13.6885 21.9454 14.2373C22.1536 14.7861 21.7146 15.0181 21.4928 15.3438C20.5875 16.4592 19.6701 17.5731 18.7406 18.6856C17.3797 20.3097 16.0292 21.9278 14.6894 23.54C14.4268 23.8567 14.1326 24.1111 13.6845 23.9504C13.2364 23.7898 13.3314 23.4106 13.3314 23.0269Z" fill="var(--logo-bolt, #fff)"/>
  </symbol>

  <symbol id="logout" viewBox="0 0 32 32">
    <path d="M11.8667 10.08C12.28 5.28001 14.7467 3.32001 20.1467 3.32001H20.32C26.28 3.32001 28.6667 5.70667 28.6667 11.6667V20.36C28.6667 26.32 26.28 28.7067 20.32 28.7067H20.1467C14.7867 28.7067 12.32 26.7733 11.88 22.0533" stroke="#9DC888" stroke-width="1.5" stroke-linecap="round" stroke-linejoin="round" fill="none"/>
    <path d="M2.6665 16H19.8398" stroke="currentColor" stroke-width="1.5" stroke-linecap="round" stroke-linejoin="round" fill="none"/>
    <path d="M16.8667 11.5333L21.3334 16L16.8667 20.4667" stroke="#9DC888" stroke-width="1.5" stroke-linecap="round" stroke-linejoin="round" fill="none"/>
  </symbol>

  <symbol id="plus" viewBox="0 0 20 20">
    <path d="M10 4.16663V15.8333" stroke="currentColor" stroke-width="1.8" stroke-linecap="round" stroke-linejoin="round" fill="none"/>
    <path d="M4.1665 10H15.8332" stroke="currentColor" stroke-width="1.8" stroke-linecap="round" stroke-linejoin="round" fill="none"/>
  </symbol>

  <symbol id="react" viewBox="0 0 256 228">
    <path fill="#00D8FF" d="M210.483 73.824a171.49 171.49 0 0 0-8.24-2.597c.465-1.9.893-3.777 1.273-5.621c6.238-30.281 2.16-54.676-11.769-62.708c-13.355-7.7-35.196.329-57.254 19.526a171.23 171.23 0 0 0-6.375 5.848a155.866 155.866 0 0 0-4.241-3.917C100.759 3.829 77.587-4.822 63.673 3.233C50.33 10.957 46.379 33.89 51.995 62.588a170.974 170.974 0 0 0 1.892 8.48c-3.28.932-6.445 1.924-9.474 2.98C17.309 83.498 0 98.307 0 113.668c0 15.865 18.582 31.778 46.812 41.427a145.52 145.52 0 0 0 6.921 2.165a167.467 167.467 0 0 0-2.01 9.138c-5.354 28.2-1.173 50.591 12.134 58.266c13.744 7.926 36.812-.22 59.273-19.855a145.567 145.567 0 0 0 5.342-4.923a168.064 168.064 0 0 0 6.92 6.314c21.758 18.722 43.246 26.282 56.54 18.586c13.731-7.949 18.194-32.003 12.4-61.268a145.016 145.016 0 0 0-1.535-6.842c1.62-.48 3.21-.974 4.76-1.488c29.348-9.723 48.443-25.443 48.443-41.52c0-15.417-17.868-30.326-45.517-39.844Zm-6.365 70.984c-1.4.463-2.836.91-4.3 1.345c-3.24-10.257-7.612-21.163-12.963-32.432c5.106-11 9.31-21.767 12.459-31.957c2.619.758 5.16 1.557 7.61 2.4c23.69 8.156 38.14 20.213 38.14 29.504c0 9.896-15.606 22.743-40.946 31.14Zm-10.514 20.834c2.562 12.94 2.927 24.64 1.23 33.787c-1.524 8.219-4.59 13.698-8.382 15.893c-8.067 4.67-25.32-1.4-43.927-17.412a156.726 156.726 0 0 1-6.437-5.87c7.214-7.889 14.423-17.06 21.459-27.246c12.376-1.098 24.068-2.894 34.671-5.345a134.17 134.17 0 0 1 1.386 6.193ZM87.276 214.515c-7.882 2.783-14.16 2.863-17.955.675c-8.075-4.657-11.432-22.636-6.853-46.752a156.923 156.923 0 0 1 1.869-8.499c10.486 2.32 22.093 3.988 34.498 4.994c7.084 9.967 14.501 19.128 21.976 27.15a134.668 134.668 0 0 1-4.877 4.492c-9.933 8.682-19.886 14.842-28.658 17.94ZM50.35 144.747c-12.483-4.267-22.792-9.812-29.858-15.863c-6.35-5.437-9.555-10.836-9.555-15.216c0-9.322 13.897-21.212 37.076-29.293c2.813-.98 5.757-1.905 8.812-2.773c3.204 10.42 7.406 21.315 12.477 32.332c-5.137 11.18-9.399 22.249-12.634 32.792a134.718 134.718 0 0 1-6.318-1.979Zm12.378-84.26c-4.811-24.587-1.616-43.134 6.425-47.789c8.564-4.958 27.502 2.111 47.463 19.835a144.318 144.318 0 0 1 3.841 3.545c-7.438 7.987-14.787 17.08-21.808 26.988c-12.04 1.116-23.565 2.908-34.161 5.309a160.342 160.342 0 0 1-1.76-7.887Zm110.427 27.268a347.8 347.8 0 0 0-7.785-12.803c8.168 1.033 15.994 2.404 23.343 4.08c-2.206 7.072-4.956 14.465-8.193 22.045a381.151 381.151 0 0 0-7.365-13.322Zm-45.032-43.861c5.044 5.465 10.096 11.566 15.065 18.186a322.04 322.04 0 0 0-30.257-.006c4.974-6.559 10.069-12.652 15.192-18.18ZM82.802 87.83a323.167 323.167 0 0 0-7.227 13.238c-3.184-7.553-5.909-14.98-8.134-22.152c7.304-1.634 15.093-2.97 23.209-3.984a321.524 321.524 0 0 0-7.848 12.897Zm8.081 65.352c-8.385-.936-16.291-2.203-23.593-3.793c2.26-7.3 5.045-14.885 8.298-22.6a321.187 321.187 0 0 0 7.257 13.246c2.594 4.48 5.28 8.868 8.038 13.147Zm37.542 31.03c-5.184-5.592-10.354-11.779-15.403-18.433c4.902.192 9.899.29 14.978.29c5.218 0 10.376-.117 15.453-.343c-4.985 6.774-10.018 12.97-15.028 18.486Zm52.198-57.817c3.422 7.8 6.306 15.345 8.596 22.52c-7.422 1.694-15.436 3.058-23.88 4.071a382.417 382.417 0 0 0 7.859-13.026a347.403 347.403 0 0 0 7.425-13.565Zm-16.898 8.101a358.557 358.557 0 0 1-12.281 19.815a329.4 329.4 0 0 1-23.444.823c-7.967 0-15.716-.248-23.178-.732a310.202 310.202 0 0 1-12.513-19.846h.001a307.41 307.41 0 0 1-10.923-20.627a310.278 310.278 0 0 1 10.89-20.637l-.001.001a307.318 307.318 0 0 1 12.413-19.761c7.613-.576 15.42-.876 23.31-.876H128c7.926 0 15.743.303 23.354.883a329.357 329.357 0 0 1 12.335 19.695a358.489 358.489 0 0 1 11.036 20.54a329.472 329.472 0 0 1-11 20.722Zm22.56-122.124c8.572 4.944 11.906 24.881 6.52 51.026c-.344 1.668-.73 3.367-1.15 5.09c-10.622-2.452-22.155-4.275-34.23-5.408c-7.034-10.017-14.323-19.124-21.64-27.008a160.789 160.789 0 0 1 5.888-5.4c18.9-16.447 36.564-22.941 44.612-18.3ZM128 90.808c12.625 0 22.86 10.235 22.86 22.86s-10.235 22.86-22.86 22.86s-22.86-10.235-22.86-22.86s10.235-22.86 22.86-22.86Z"/>
  </symbol>

  <symbol id="x-close" viewBox="0 0 18 18">
    <path d="M13.5 4.5L4.5 13.5" stroke="currentColor" stroke-width="1.5" stroke-linecap="round" stroke-linejoin="round" fill="none"/>
    <path d="M4.5 4.5L13.5 13.5" stroke="currentColor" stroke-width="1.5" stroke-linecap="round" stroke-linejoin="round" fill="none"/>
  </symbol>

  <symbol id="circles" viewBox="0 0 18 18">
    <path d="M2.47276 3.92535C2.64182 3.20459 3.2046 2.64182 3.92535 2.47276V2.47276C4.54997 2.32624 5.20003 2.32624 5.82465 2.47276V2.47276C6.54541 2.64182 7.10818 3.20459 7.27724 3.92535V3.92535C7.42376 4.54997 7.42376 5.20003 7.27724 5.82465V5.82465C7.10818 6.54541 6.54541 7.10818 5.82465 7.27724V7.27724C5.20003 7.42376 4.54997 7.42376 3.92535 7.27724V7.27724C3.2046 7.10818 2.64182 6.54541 2.47276 5.82465V5.82465C2.32624 5.20003 2.32624 4.54997 2.47276 3.92535V3.92535Z" stroke="currentColor" stroke-width="1.5" fill="none"/>
    <path d="M2.47276 12.1753C2.64182 11.4546 3.2046 10.8918 3.92535 10.7228V10.7228C4.54997 10.5762 5.20003 10.5762 5.82465 10.7228V10.7228C6.54541 10.8918 7.10818 11.4546 7.27724 12.1753V12.1753C7.42376 12.8 7.42376 13.45 7.27724 14.0747V14.0747C7.10818 14.7954 6.54541 15.3582 5.82465 15.5272V15.5272C5.20003 15.6738 4.54997 15.6738 3.92535 15.5272V15.5272C3.2046 15.3582 2.64182 14.7954 2.47276 14.0747V14.0747C2.32624 13.45 2.32624 12.8 2.47276 12.1753V12.1753Z" stroke="currentColor" stroke-width="1.5" fill="none"/>
    <path d="M10.7228 3.92535C10.8918 3.20459 11.4546 2.64182 12.1753 2.47276V2.47276C12.8 2.32624 13.45 2.32624 14.0747 2.47276V2.47276C14.7954 2.64182 15.3582 3.20459 15.5272 3.92535V3.92535C15.6738 4.54997 15.6738 5.20003 15.5272 5.82465V5.82465C15.3582 6.54541 14.7954 7.10818 14.0747 7.27724V7.27724C13.45 7.42376 12.8 7.42376 12.1753 7.27724V7.27724C11.4546 7.10818 10.8918 6.54541 10.7228 5.82465V5.82465C10.5762 5.20003 10.5762 4.54997 10.7228 3.92535V3.92535Z" stroke="currentColor" stroke-width="1.5" fill="none"/>
    <path d="M10.7228 12.1753C10.8918 11.4546 11.4546 10.8918 12.1753 10.7228V10.7228C12.8 10.5762 13.45 10.5762 14.0747 10.7228V10.7228C14.7954 10.8918 15.3582 11.4546 15.5272 12.1753V12.1753C15.6738 12.8 15.6738 13.45 15.5272 14.0747V14.0747C15.3582 14.7954 14.7954 15.3582 14.0747 15.5272V15.5272C13.45 15.6738 12.8 15.6738 12.1753 15.5272V15.5272C11.4546 15.3582 10.8918 14.7954 10.7228 14.0747V14.0747C10.5762 13.45 10.5762 12.8 10.7228 12.1753V12.1753Z" stroke="currentColor" stroke-width="1.5" fill="none"/>
  </symbol>

  <symbol id="colors" viewBox="0 0 18 18">
    <path d="M8.99999 15.3542C9.79613 16.0667 10.8475 16.5 12 16.5C14.4853 16.5 16.5 14.4853 16.5 12C16.5 9.92481 15.0953 8.17769 13.1849 7.65763M4.81513 7.65762C2.9047 8.17768 1.5 9.9248 1.5 12C1.5 14.4853 3.51472 16.5 6 16.5C8.48528 16.5 10.5 14.4853 10.5 12C10.5 11.4146 10.3882 10.8554 10.1849 10.3424M13.5 6C13.5 8.48528 11.4853 10.5 9 10.5C6.51472 10.5 4.5 8.48528 4.5 6C4.5 3.51472 6.51472 1.5 9 1.5C11.4853 1.5 13.5 3.51472 13.5 6Z" stroke="currentColor" stroke-width="1.5" stroke-linecap="round" stroke-linejoin="round" fill="none"/>
  </symbol>

  <symbol id="container" viewBox="0 0 16 18">
    <path d="M14.375 5.45825L7.99998 8.99992M7.99998 8.99992L1.62498 5.45825M7.99998 8.99992L8 16.1249M14.75 12.0439V5.95603C14.75 5.69904 14.75 5.57055 14.7121 5.45595C14.6786 5.35457 14.6239 5.26151 14.5515 5.18299C14.4697 5.09424 14.3574 5.03184 14.1328 4.90704L8.58277 1.8237C8.37007 1.70553 8.26372 1.64645 8.15109 1.62329C8.05141 1.60278 7.9486 1.60278 7.84891 1.62329C7.73628 1.64645 7.62993 1.70553 7.41723 1.8237L1.86723 4.90704C1.64259 5.03184 1.53026 5.09424 1.44847 5.18299C1.37612 5.26151 1.32136 5.35457 1.28786 5.45595C1.25 5.57055 1.25 5.69904 1.25 5.95603V12.0439C1.25 12.3008 1.25 12.4293 1.28786 12.5439C1.32136 12.6453 1.37612 12.7384 1.44847 12.8169C1.53026 12.9056 1.64259 12.968 1.86723 13.0928L7.41723 16.1762C7.62993 16.2943 7.73628 16.3534 7.84891 16.3766C7.9486 16.3971 8.05141 16.3971 8.15109 16.3766C8.26372 16.3534 8.37007 16.2943 8.58277 16.1762L14.1328 13.0928C14.3574 12.968 14.4697 12.9056 14.5515 12.8169C14.6239 12.7384 14.6786 12.6453 14.7121 12.5439C14.75 12.4293 14.75 12.3008 14.75 12.0439Z" stroke="currentColor" stroke-width="1.5" stroke-linecap="round" stroke-linejoin="round" fill="none"/>
  </symbol>

  <symbol id="hexagon" viewBox="0 0 16 18">
    <path d="M7.41723 1.8237C7.62993 1.70553 7.73628 1.64645 7.84891 1.62329C7.94859 1.60278 8.05141 1.60278 8.15109 1.62329C8.26372 1.64645 8.37007 1.70553 8.58277 1.8237L14.1328 4.90704C14.3574 5.03184 14.4697 5.09424 14.5515 5.18299C14.6239 5.26151 14.6786 5.35457 14.7121 5.45595C14.75 5.57055 14.75 5.69904 14.75 5.95603V12.0439C14.75 12.3008 14.75 12.4293 14.7121 12.5439C14.6786 12.6453 14.6239 12.7384 14.5515 12.8169C14.4697 12.9056 14.3574 12.968 14.1328 13.0928L8.58277 16.1762C8.37007 16.2943 8.26372 16.3534 8.15109 16.3766C8.05141 16.3971 7.94859 16.3971 7.84891 16.3766C7.73628 16.3534 7.62993 16.2943 7.41723 16.1762L1.86723 13.0928C1.64259 12.968 1.53026 12.9056 1.44847 12.8169C1.37612 12.7384 1.32136 12.6453 1.28786 12.5439C1.25 12.4293 1.25 12.3008 1.25 12.0439V5.95602C1.25 5.69904 1.25 5.57055 1.28786 5.45595C1.32136 5.35457 1.37612 5.26151 1.44847 5.18299C1.53026 5.09424 1.64259 5.03184 1.86723 4.90704L7.41723 1.8237Z" stroke="currentColor" stroke-width="1.5" stroke-linecap="round" stroke-linejoin="round" fill="none"/>
  </symbol>

  <symbol id="lightning" viewBox="0 0 15 18">
    <path d="M9.68715 1.5H5.37047C5.23586 1.5 5.16855 1.5 5.10913 1.5205C5.05658 1.53862 5.00872 1.5682 4.96901 1.60709C4.92411 1.65107 4.89401 1.71127 4.83381 1.83167L1.68381 8.13167C1.54005 8.41919 1.46817 8.56295 1.48543 8.67981C1.50051 8.78185 1.55695 8.87318 1.64148 8.9323C1.73828 9 1.89901 9 2.22046 9H6.87465L4.62464 16.5L13.7695 7.01648C14.078 6.69653 14.2323 6.53655 14.2413 6.39966C14.2491 6.28084 14.2 6.16536 14.1091 6.08852C14.0043 6 13.782 6 13.3376 6H7.99965L9.68715 1.5Z" stroke="currentColor" stroke-width="1.5" stroke-linecap="round" stroke-linejoin="round" fill="none"/>
  </symbol>

  <symbol id="loading" viewBox="0 0 18 18">
    <path d="M2.50519 12.7498C1.56607 11.1224 2.04355 9.04833 3.59847 7.99505L3.60013 7.99338C4.84923 7.14926 6.49331 7.17759 7.71325 8.06421L10.2873 9.93578C11.5064 10.8224 13.1505 10.8507 14.4004 10.0066L14.4021 10.0049C15.9578 8.95166 16.4361 6.87594 15.4953 5.25019M12.7515 15.4945C11.1241 16.4336 9.04999 15.9561 7.99671 14.4012L7.99505 14.3995C7.15093 13.1504 7.17926 11.5063 8.06588 10.2864L9.93744 7.71238C10.8241 6.49327 10.8524 4.84919 10.0083 3.59926L10.0049 3.59759C8.95166 2.04351 6.87594 1.56437 5.25019 2.50515M14.3029 3.69676C17.2319 6.62577 17.2319 11.3739 14.3029 14.3029C11.3739 17.2319 6.62577 17.2319 3.69676 14.3029C0.767747 11.3739 0.767747 6.62577 3.69676 3.69676C6.62577 0.767747 11.3739 0.767747 14.3029 3.69676Z" stroke="currentColor" stroke-width="1.5" stroke-linecap="round" stroke-linejoin="round" fill="none"/>
  </symbol>

  <symbol id="puzzle" viewBox="0 0 18 18">
    <path d="M9 1.5L11.7 4.2C13.5 -0.525 18.525 4.5 13.8 6.3L16.5 9L13.8 11.7C12 6.975 6.975 12 11.7 13.8L9 16.5L6.3 13.8C4.5 18.525 -0.525 13.5 4.2 11.7L1.5 9L4.2 6.3C6 11.025 11.025 6 6.3 4.2L9 1.5Z" stroke="currentColor" stroke-width="1.5" stroke-linecap="round" stroke-linejoin="round" fill="none"/>
  </symbol>

  <symbol id="star" viewBox="0 0 18 18">
    <path d="M9 1.5L10.509 5.42331C10.7205 5.97324 10.8262 6.2482 10.9907 6.47948C11.1364 6.68446 11.3155 6.86356 11.5205 7.00931C11.7518 7.17377 12.0268 7.27952 12.5767 7.49103L16.5 9L12.5767 10.509C12.0268 10.7205 11.7518 10.8262 11.5205 10.9907C11.3155 11.1364 11.1364 11.3155 10.9907 11.5205C10.8262 11.7518 10.7205 12.0268 10.509 12.5767L9 16.5L7.49103 12.5767C7.27952 12.0268 7.17377 11.7518 7.00931 11.5205C6.86356 11.3155 6.68446 11.1364 6.47948 10.9907C6.2482 10.8262 5.97324 10.7205 5.42331 10.509L1.5 9L5.42331 7.49103C5.97323 7.27952 6.2482 7.17377 6.47948 7.00931C6.68446 6.86356 6.86356 6.68446 7.00931 6.47948C7.17377 6.2482 7.27952 5.97324 7.49103 5.42331L9 1.5Z" stroke="currentColor" stroke-width="1.5" stroke-linecap="round" stroke-linejoin="round" fill="none"/>
  </symbol>
</svg>
